:SAMPLES-PER-SECOND 30
:FULLY-SPECIFIED
:DEGREES
99
root  -10.0613 39.2912 -7.4369 96.1927 -86.0362 -97.4332
RightUpLeg  -17.8993 -10.1085 8.10475
RightLeg  24.8295 -2.35353 -1.50945
RightFoot  -8.51767 -0.0326743 -1.30876
RightToes  1.16414e-010 0 -3.6325e-017
Spine  7.11107 -3.41804 8.65197
Spine1  6.06353 -2.85374 0.875158
HEad  -14.8153 8.11777 -6.32717
LeftShoulder1  7.60909 -11.4383 -44.3417
LeftArm  0.000760172 10.0823 -31.364
LeftForeArm  174.239 -64.705 -159.672
LeftHand  -0.244104 0.0205437 5.32207
RightShoulder  4.79758 9.13171 32.0255
RightArm  -0.58295 -53.1812 33.3134
RightForeArm  126.002 72.7472 141.967
RightHand  0.0841553 -6.22952 -14.0473
LeftUpLeg  2.56404 2.60223 3.41314
LeftLeg  53.5494 6.6495 10.0069
LeftFoot  -3.50936 0.168389 -2.16015
LeftToes  -6.73059e-011 1.31891e-010 -1.28765e-011
100
root  -11.8907 38.2953 -7.47387 93.6439 -84.1325 -95.6277
RightUpLeg  -18.6902 -7.73416 10.4547
RightLeg  33.8408 -5.95976 -4.53017
RightFoot  -12.7841 -0.154125 -5.95783
RightToes  1.16414e-010 0 -3.6325e-017
Spine  8.60413 -3.23627 11.931
Spine1  5.12033 -2.11833 0.658152
HEad  -15.1882 7.47759 -6.81093
LeftShoulder1  7.50832 -11.0216 -45.0392
LeftArm  -1.92271 9.94656 -32.8063
LeftForeArm  177.778 -65.0429 -159.742
LeftHand  -0.244104 0.0205437 5.32207
RightShoulder  5.32628 9.2527 35.7669
RightArm  2.98491 -45.3527 26.7822
RightForeArm  125.371 71.7201 144.131
RightHand  0.174057 -6.9649 -14.2862
LeftUpLeg  -1.68459 0.0788283 5.84268
LeftLeg  64.9158 4.77528 11.6914
LeftFoot  -3.41254 0.121226 -1.45943
LeftToes  -6.73059e-011 1.31891e-010 -1.28765e-011
101
root  -13.6441 37.4672 -7.49734 89.9947 -82.6949 -92.6352
RightUpLeg  -18.4403 -6.93112 11.8885
RightLeg  41.3176 -6.65985 -6.49478
RightFoot  -18.4098 -0.489736 -6.13716
RightToes  1.16414e-010 0 -3.6325e-017
Spine  10.1327 -3.38057 14.0813
Spine1  4.9593 -1.88864 0.874244
HEad  -17.3414 7.31083 -7.83934
LeftShoulder1  7.71792 -10.8924 -46.7536
LeftArm  -4.91565 11.6171 -32.3708
LeftForeArm  -178.108 -65.7238 -159.559
LeftHand  -0.244104 0.0205437 5.32207
RightShoulder  6.04325 9.51097 40.2781
RightArm  4.74603 -33.1505 21.7452
RightForeArm  120.581 72.2223 142.29
RightHand  0.207438 -7.01482 -16.1397
LeftUpLeg  -6.98425 -2.1194 7.96983
LeftLeg  73.5802 3.10013 12.8411
LeftFoot  -4.18837 0.0836432 -0.912057
LeftToes  -6.73059e-011 1.31891e-010 -1.28765e-011
102
root  -15.4555 37.1093 -7.53582 86.1643 -82.3848 -89.1375
RightUpLeg  -15.949 -8.25283 11.7302
RightLeg  43.8418 -5.93906 -6.40072
RightFoot  -23.3827 -0.627279 -4.41172
RightToes  1.16414e-010 0 -3.6325e-017
Spine  10.3285 -3.14108 15.5162
Spine1  6.06231 -1.19971 0.0434407
HEad  -19.3511 6.20762 -8.37138
LeftShoulder1  8.24408 -11.3275 -48.5144
LeftArm  -6.80743 15.4911 -29.8412
LeftForeArm  -178.444 -66.2876 -159.002
LeftHand  -0.244104 0.0205437 5.32207
RightShoulder  6.52171 9.84794 42.5484
RightArm  2.73679 -21.8469 22.9583
RightForeArm  120.166 73.4341 139.382
RightHand  0.158713 -6.5574 -17.18
LeftUpLeg  -12.7359 -3.56615 8.90981
LeftLeg  77.9145 2.09723 13.0171
LeftFoot  -5.35134 0.0654107 -0.637132
LeftToes  -6.73059e-011 1.31891e-010 -1.28765e-011
103
root  -17.4742 37.3325 -7.62772 86.3857 -83.7926 -89.1779
RightUpLeg  -11.2971 -9.338 9.65354
RightLeg  41.5737 -5.471 -5.48448
RightFoot  -25.4748 -0.634774 -3.72703
RightToes  1.16414e-010 0 -3.6325e-017
Spine  9.16059 -1.69561 16.3256
Spine1  7.10916 1.00419 -3.00157
HEad  -19.377 3.34416 -6.90943
LeftShoulder1  8.57715 -11.742 -49.112
LeftArm  -5.4239 20.7218 -26.2297
LeftForeArm  177.434 -65.9055 -158.916
LeftHand  -0.244104 0.0205437 5.32207
RightShoulder  6.55265 9.97958 42.3091
RightArm  -1.12196 -16.1748 28.7253
RightForeArm  130.311 72.6476 142.795
RightHand  0.121148 -6.38713 -16.1157
LeftUpLeg  -17.7138 -3.37005 7.84199
LeftLeg  77.0708 2.17129 12.4343
LeftFoot  -6.75626 0.0683195 -0.700864
LeftToes  -6.73059e-011 1.31891e-010 -1.28765e-011
104
root  -19.6945 38.09 -7.76134 91.7368 -86.6809 -94.01
RightUpLeg  -5.25639 -8.95258 5.98737
RightLeg  36.0387 -5.14394 -4.29171
RightFoot  -24.356 -0.527759 -3.18565
RightToes  1.16414e-010 0 -3.6325e-017
Spine  7.88315 0.639566 15.595
Spine1  6.81908 4.05821 -7.03596
HEad  -17.8318 -0.360149 -3.71763
LeftShoulder1  8.33077 -11.5098 -48.4243
LeftArm  -1.54724 26.0501 -22.5632
LeftForeArm  174.975 -64.2657 -160.116
LeftHand  -0.244104 0.0205437 5.32207
RightShoulder  6.41299 9.82298 41.8668
RightArm  -3.31826 -15.1229 34.0857
RightForeArm  142.098 69.1999 150.764
RightHand  0.13452 -6.58994 -14.742
LeftUpLeg  -20.8641 -1.69869 4.76393
LeftLeg  71.0889 3.54916 12.2861
LeftFoot  -8.36719 0.083453 -1.31862
LeftToes  -6.73059e-011 1.31891e-010 -1.28765e-011
105
root  -22.007 39.1739 -7.86811 103.393 -89.7917 -104.856
RightUpLeg  0.919332 -9.04968 1.67831
RightLeg  28.9311 -3.55439 -2.40416
RightFoot  -20.0357 -0.183527 -0.404508
RightToes  1.16414e-010 0 -3.6325e-017
Spine  6.53864 2.70647 13.3232
Spine1  5.69828 6.25879 -9.9647
HEad  -15.7885 -3.48368 -0.835702
LeftShoulder1  7.69069 -10.7508 -47.0614
LeftArm  1.9035 31.3791 -19.8771
LeftForeArm  176.334 -62.2651 -161.838
LeftHand  -0.244104 0.0205437 5.32207
RightShoulder  6.28533 9.49232 42.0912
RightArm  -1.50909 -15.0579 36.4417
RightForeArm  145.285 65.8372 155.444
RightHand  0.110725 -6.3879 -14.8263
LeftUpLeg  -22.2936 0.348543 0.89239
LeftLeg  60.6861 6.16674 12.2625
LeftFoot  -9.45747 0.0965942 -2.37176
LeftToes  -6.73059e-011 1.31891e-010 -1.28765e-011
106
root  -24.3191 40.2322 -7.90034 -53.8474 -87.8972 53.5457
RightUpLeg  5.67283 -11.5799 -2.18949
RightLeg  23.0121 -0.17296 -0.287359
RightFoot  -12.1034 -0.0671492 3.81283
RightToes  1.16414e-010 0 -3.6325e-017
Spine  4.21149 3.91917 11.0053
Spine1  5.22238 7.15992 -11.1432
HEad  -13.4716 -5.67441 0.234989
LeftShoulder1  7.2171 -10.2542 -45.7274
LeftArm  3.01614 37.2064 -18.4638
LeftForeArm  178.496 -60.6995 -163.132
LeftHand  -0.244104 0.0205437 5.32207
RightShoulder  6.05221 9.1229 41.6838
RightArm  3.06505 -14.4054 37.2169
RightForeArm  145.43 64.3127 156.985
RightHand  0.0889196 -6.27229 -14.2237
LeftUpLeg  -22.6722 2.22431 -2.43108
LeftLeg  47.3545 8.43461 10.1704
LeftFoot  -9.39331 0.107282 -2.98129
LeftToes  -6.73059e-011 1.31891e-010 -1.28765e-011
107
root  -26.5738 41.0046 -7.87653 -38.7492 -86.6719 39.3766
RightUpLeg  8.0766 -13.8364 -4.30304
RightLeg  21.3335 2.40252 0.873417
RightFoot  -2.41647 -0.502388 6.4273
RightToes  1.16414e-010 0 -3.6325e-017
Spine  1.72625 4.58484 9.91564
Spine1  5.74183 7.5696 -11.4177
HEad  -11.3728 -7.36744 -0.13503
LeftShoulder1  7.25355 -10.5495 -44.9631
LeftArm  1.73431 43.0412 -18.0544
LeftForeArm  178.392 -59.5365 -163.866
LeftHand  -0.244104 0.0205437 5.32207
RightShoulder  5.79087 8.95457 40.3281
RightArm  7.82553 -13.7466 37.7678
RightForeArm  150.162 63.3051 158.384
RightHand  0.164478 -7.88269 -9.80707
LeftUpLeg  -22.002 4.29519 -4.71486
LeftLeg  33.3031 7.44784 5.70822
LeftFoot  -9.17231 0.117512 -3.33673
LeftToes  -6.73059e-011 1.31891e-010 -1.28765e-011
108
root  -28.715 41.3651 -7.83603 -27.698 -86.3759 28.1784
RightUpLeg  8.2556 -11.7376 -4.0871
RightLeg  25.1912 1.48914 0.502259
RightFoot  4.07013 -0.89096 6.81443
RightToes  1.16414e-010 0 -3.6325e-017
Spine  0.893202 5.05311 9.71955
Spine1  6.52326 7.99956 -11.5088
HEad  -10.436 -8.56984 -0.592827
LeftShoulder1  7.55238 -11.2226 -44.6689
LeftArm  -1.37407 47.6698 -19.0691
LeftForeArm  176.773 -58.7559 -164.2
LeftHand  -0.244104 0.0205437 5.32207
RightShoulder  5.78792 9.20687 39.4274
RightArm  11.7793 -13.277 37.0725
RightForeArm  157.995 61.8195 160.388
RightHand  0.0989958 -9.90147 -3.5756
LeftUpLeg  -20.0228 6.71192 -6.11646
LeftLeg  21.1502 3.10275 1.52185
LeftFoot  -9.91519 0.117387 -4.68068
LeftToes  -6.73059e-011 1.31891e-010 -1.28765e-011
